<mxfile host="app.diagrams.net" modified="2024-07-12T18:08:26.740Z" agent="Mozilla/5.0 (Windows NT 10.0; Win64; x64) AppleWebKit/537.36 (KHTML, like Gecko) Chrome/126.0.0.0 Safari/537.36 Edg/126.0.0.0" etag="AQyF0wPBGr9-tRcK9i6b" version="24.6.5" type="github">
  <diagram name="Page-1" id="6yTMxK8OEDPQoofQ5PLE">
    <mxGraphModel dx="1042" dy="577" grid="1" gridSize="10" guides="1" tooltips="1" connect="1" arrows="1" fold="1" page="1" pageScale="1" pageWidth="850" pageHeight="1100" math="0" shadow="0">
      <root>
        <mxCell id="0" />
        <mxCell id="1" parent="0" />
        <mxCell id="5xfNFWDeb8MRxHvYmpPk-1" value="Thiết bị đo" style="rounded=1;whiteSpace=wrap;html=1;" vertex="1" parent="1">
          <mxGeometry x="100" y="180" width="120" height="60" as="geometry" />
        </mxCell>
        <mxCell id="5xfNFWDeb8MRxHvYmpPk-11" value="" style="edgeStyle=orthogonalEdgeStyle;rounded=0;orthogonalLoop=1;jettySize=auto;html=1;" edge="1" parent="1" source="5xfNFWDeb8MRxHvYmpPk-2" target="5xfNFWDeb8MRxHvYmpPk-5">
          <mxGeometry relative="1" as="geometry" />
        </mxCell>
        <mxCell id="5xfNFWDeb8MRxHvYmpPk-2" value="Self-hosted BROKER" style="ellipse;whiteSpace=wrap;html=1;fillColor=#dae8fc;strokeColor=#6c8ebf;" vertex="1" parent="1">
          <mxGeometry x="270" y="165" width="90" height="90" as="geometry" />
        </mxCell>
        <mxCell id="5xfNFWDeb8MRxHvYmpPk-4" value="MQTT" style="text;html=1;align=center;verticalAlign=middle;resizable=0;points=[];autosize=1;strokeColor=none;fillColor=none;" vertex="1" parent="1">
          <mxGeometry x="220" y="180" width="60" height="30" as="geometry" />
        </mxCell>
        <mxCell id="5xfNFWDeb8MRxHvYmpPk-5" value="" style="rounded=1;whiteSpace=wrap;html=1;fillColor=#dae8fc;strokeColor=#6c8ebf;" vertex="1" parent="1">
          <mxGeometry x="470" y="60" width="200" height="300" as="geometry" />
        </mxCell>
        <mxCell id="5xfNFWDeb8MRxHvYmpPk-8" value="" style="edgeStyle=orthogonalEdgeStyle;rounded=0;orthogonalLoop=1;jettySize=auto;html=1;" edge="1" parent="1" source="5xfNFWDeb8MRxHvYmpPk-6" target="5xfNFWDeb8MRxHvYmpPk-7">
          <mxGeometry relative="1" as="geometry" />
        </mxCell>
        <mxCell id="5xfNFWDeb8MRxHvYmpPk-6" value="Device" style="rounded=1;whiteSpace=wrap;html=1;" vertex="1" parent="1">
          <mxGeometry x="510" y="90" width="120" height="60" as="geometry" />
        </mxCell>
        <mxCell id="5xfNFWDeb8MRxHvYmpPk-10" value="" style="edgeStyle=orthogonalEdgeStyle;rounded=0;orthogonalLoop=1;jettySize=auto;html=1;" edge="1" parent="1" source="5xfNFWDeb8MRxHvYmpPk-7" target="5xfNFWDeb8MRxHvYmpPk-9">
          <mxGeometry relative="1" as="geometry" />
        </mxCell>
        <mxCell id="5xfNFWDeb8MRxHvYmpPk-7" value="Entity Alias" style="rounded=1;whiteSpace=wrap;html=1;fillColor=#d5e8d4;strokeColor=#82b366;" vertex="1" parent="1">
          <mxGeometry x="510" y="180" width="120" height="60" as="geometry" />
        </mxCell>
        <mxCell id="5xfNFWDeb8MRxHvYmpPk-9" value="DashBoard" style="rounded=1;whiteSpace=wrap;html=1;fillColor=#fff2cc;strokeColor=#d6b656;" vertex="1" parent="1">
          <mxGeometry x="510" y="270" width="120" height="60" as="geometry" />
        </mxCell>
        <mxCell id="5xfNFWDeb8MRxHvYmpPk-12" value="Integration MQTT" style="text;html=1;align=center;verticalAlign=middle;resizable=0;points=[];autosize=1;strokeColor=none;fillColor=none;" vertex="1" parent="1">
          <mxGeometry x="350" y="188" width="120" height="30" as="geometry" />
        </mxCell>
        <mxCell id="5xfNFWDeb8MRxHvYmpPk-13" value="&lt;font style=&quot;font-size: 13px;&quot;&gt;ThingsBoard&lt;/font&gt;" style="text;html=1;align=center;verticalAlign=middle;resizable=0;points=[];autosize=1;strokeColor=none;fillColor=none;" vertex="1" parent="1">
          <mxGeometry x="570" y="60" width="100" height="30" as="geometry" />
        </mxCell>
        <mxCell id="5xfNFWDeb8MRxHvYmpPk-15" value="" style="edgeStyle=none;orthogonalLoop=1;jettySize=auto;html=1;endArrow=classic;startArrow=classic;endSize=8;startSize=8;rounded=0;entryX=0;entryY=0.5;entryDx=0;entryDy=0;" edge="1" parent="1" target="5xfNFWDeb8MRxHvYmpPk-2">
          <mxGeometry width="100" relative="1" as="geometry">
            <mxPoint x="220" y="209.5" as="sourcePoint" />
            <mxPoint x="320" y="209.5" as="targetPoint" />
            <Array as="points" />
          </mxGeometry>
        </mxCell>
      </root>
    </mxGraphModel>
  </diagram>
</mxfile>
